<?xml version="1.0" encoding="utf-8"?>
<!-- Generator: Adobe Illustrator 23.0.2, SVG Export Plug-In . SVG Version: 6.00 Build 0)  -->
<svg version="1.1" id="Слой_1" xmlns="http://www.w3.org/2000/svg" xmlns:xlink="http://www.w3.org/1999/xlink" x="0px" y="0px"
	 viewBox="0 0 117 115.3" style="enable-background:new 0 0 117 115.3;" xml:space="preserve">
<style type="text/css">
	.st0{fill-rule:evenodd;clip-rule:evenodd;fill:#7AA932;}
</style>
<title>logo</title>
<g>
	<g id="Layer_1">
		<path class="st0" d="M84.1,10.1c20.7,9.9,31.2,27.3,24.3,55.9c0,0.2-0.1,0.3-0.1,0.5c-0.9,3.1-4.1,4.8-7.1,4
			c-3.1-0.9-4.8-4.1-4-7.1c5.3-22.1-2.5-35.4-18.1-42.8C63,12.8,39,10.8,12.3,11.8C9.5,86.5,33.1,112.5,83.2,89.7L70.1,76.7H49.5
			c-3-0.1-5.4-2.5-5.5-5.5c-0.1-3.2,2.3-5.9,5.5-6h9L48.2,54.8H31.5c-3-0.1-5.4-2.5-5.5-5.5c-0.1-3.2,2.3-5.9,5.5-6h5.1L28,34.6
			c-2.3-2.3-2.3-5.9,0-8.2c2.3-2.3,5.9-2.3,8.2,0l79.1,79c1.2,1.2,1.8,2.8,1.7,4.5c-0.2,3.2-3,5.6-6.2,5.4H0.5C0.5,79-0.9,41.6,1,6
			c0.2-0.7,0.5-1.4,0.9-2l0,0c0,0,0-0.1,0-0.1l0,0V3.8V3.8V3.7V3.6l0,0c0,0,0-0.1,0-0.1l0,0V3.4l0,0C2.1,3,2.3,2.6,2.6,2.2l0,0
			l0.1-0.1l0,0L2.8,2l0,0l0.1-0.1l0,0l0.1-0.1l0,0L3,1.8l0,0l0,0L3,1.8l0,0l0.1-0.1l0,0l0.1-0.1l0,0l0.1-0.1l0,0l0.1-0.1l0,0
			c0.4-0.3,0.8-0.5,1.2-0.7l0,0h0.1l0,0l0.1-0.1l0,0h0.1h0.1l0,0H5l0,0h0.1l0,0C5.6,0.6,6,0.5,6.5,0.5C37-1.1,65,1,84.1,10.1z
			 M110.3,115.3h-0.1H110.3z M110.5,115.3h-0.1H110.5z M110.5,115.3L110.5,115.3z M110.7,115.3h-0.1H110.7z"/>
	</g>
</g>
</svg>
